<svg xmlns="http://www.w3.org/2000/svg" viewBox="0 0 48 48"><g><circle cx="24" cy="24" r="22" fill="#23272f"/><path d="M36.2 16.1a19.7 19.7 0 0 0-4.9-1.5c-.2-.3-.5-.7-.8-1a20.2 20.2 0 0 0-6.5 0c-.3.3-.6.7-.8 1a19.7 19.7 0 0 0-4.9 1.5c-3.1 4.6-4 9.1-3.6 13.5a20.2 20.2 0 0 0 5.9 1.8c.4-.5.8-1 .9-1.6-1.6-.5-3.1-1.2-4.5-2.1.4-.3.8-.6 1.2-.9 2.2 1.6 4.7 2.5 7.3 2.5s5.1-.9 7.3-2.5c.4.3.8.6 1.2.9-1.4.9-2.9 1.6-4.5 2.1.1.6.5 1.1.9 1.6a20.2 20.2 0 0 0 5.9-1.8c.4-4.4-.5-8.9-3.6-13.5zm-13.2 8.7c-.9 0-1.7-.8-1.7-1.7s.8-1.7 1.7-1.7 1.7.8 1.7 1.7-.8 1.7-1.7 1.7zm8 0c-.9 0-1.7-.8-1.7-1.7s.8-1.7 1.7-1.7 1.7.8 1.7 1.7-.8 1.7-1.7 1.7z" fill="#4fc3f7"/></g></svg>